# xmcd
#
# Track frame offsets: 
#        150
#        13602
#        26467
#        36967
#        49590
#        61115
#        74632
#        86195
#        97915
#        108865
#        119455
#        128592
#        138440
#        151567
#        162185
#        174045
#        186370
#        196152
#        204922
#        214975
#        224902
#        234207
#        243292
#        253910
#        264717
#        273662
#        283127
#        292812
#        303237
#        312685
#        321497
#        331837
#
# Disc length: 4545 seconds
#
# Revision: 1
# Processed by: cddbd v1.5.2PL0 Copyright (c) Steve Scherf et al.
# Submitted via: ExactAudioCopy v0.99pb4
#
DISCID=d611bf20
DTITLE=Johnnie and Jack - For Old Times Sake
DYEAR=2003
DGENRE=Country
TTITLE0=What About You
TTITLE1=For Old Times Sake
TTITLE2=Poison Love
TTITLE3=I'm Gonna Love You One More Time
TTITLE4=Take My Ring From Your Finger
TTITLE5=I Can't Tell My Heart That
TTITLE6=Cryin' Heart Blues
TTITLE7=Let Your Conscience Be Your Guide
TTITLE8=You Tried To Ruin My Name
TTITLE9=Ashes Of Love
TTITLE10=Three Ways Of Knowing
TTITLE11=Heart Trouble
TTITLE12=The Only One I Ever Loved I Lost
TTITLE13=South In New Orleans
TTITLE14=Don't Say Goodbye
TTITLE15=I Loved You Better Than Ever You Knew
TTITLE16=S.O.S.
TTITLE17=(Oh Baby Mine) I Get So Lonely
TTITLE18=Goodnight, Sweetheart, Goodnight
TTITLE19=Honey I Need You
TTITLE20=Kiss Crazy Baby
TTITLE21=Beware Of It
TTITLE22=No One Dear But You
TTITLE23=We Live In Two Different Worlds
TTITLE24=I Want To Be Loved
TTITLE25=Why Not Confess
TTITLE26=I Don't Mean To Cry
TTITLE27=I Never Can Come Back To You
TTITLE28=Stop The World (And Let Me Off)
TTITLE29=Lonely Island Pearl
TTITLE30=Sailor Man
TTITLE31=Slow Poison
EXTD=Bear Family Records (Org. RCA/DECCA)
EXTT0=
EXTT1=
EXTT2=
EXTT3=
EXTT4=
EXTT5=
EXTT6=
EXTT7=
EXTT8=
EXTT9=
EXTT10=
EXTT11=
EXTT12=
EXTT13=
EXTT14=
EXTT15=
EXTT16=
EXTT17=
EXTT18=
EXTT19=
EXTT20=
EXTT21=
EXTT22=
EXTT23=
EXTT24=
EXTT25=
EXTT26=
EXTT27=
EXTT28=
EXTT29=
EXTT30=
EXTT31=
PLAYORDER=
